<?xml version="1.0" standalone="no"?>
<!DOCTYPE svg PUBLIC "-//W3C//DTD SVG 20010904//EN"
 "http://www.w3.org/TR/2001/REC-SVG-20010904/DTD/svg10.dtd">
<svg version="1.0" xmlns="http://www.w3.org/2000/svg"
 width="512.000000pt" height="512.000000pt" viewBox="0 0 512.000000 512.000000"
 preserveAspectRatio="xMidYMid meet">
<metadata>
Created by potrace 1.11, written by Peter Selinger 2001-2013
</metadata>
<g transform="translate(0.000000,512.000000) scale(0.100000,-0.100000)"
fill="#000000" stroke="none">
<path d="M1660 5080 c-374 -20 -493 -31 -653 -60 -92 -16 -191 -39 -220 -50
-28 -11 -58 -20 -65 -20 -20 0 -175 -76 -229 -112 -62 -41 -170 -149 -211
-211 -34 -50 -112 -209 -112 -226 0 -6 -11 -43 -24 -83 -56 -168 -82 -386
-106 -901 -15 -299 -8 -1716 9 -1967 45 -654 157 -962 421 -1156 66 -48 202
-115 290 -143 98 -30 246 -62 330 -71 52 -5 159 -17 237 -25 227 -24 561 -35
1106 -35 336 0 506 -3 502 -10 -4 -6 10 -10 34 -10 22 0 43 5 46 10 3 6 15 10
26 10 11 0 17 -4 14 -10 -9 -14 48 -13 63 2 6 6 47 12 99 13 84 1 118 8 109
23 -6 10 12 325 29 517 47 514 173 805 420 972 87 59 146 86 270 126 206 66
399 91 946 123 l97 6 6 30 c3 17 6 63 6 104 0 40 4 76 10 79 6 3 10 20 10 36
0 18 -4 28 -10 24 -7 -4 -10 184 -10 557 0 597 -11 957 -36 1178 -8 74 -19
178 -24 230 -13 119 -60 312 -97 400 -66 155 -109 223 -193 309 -196 200 -497
292 -1080 332 -207 14 -1776 21 -2010 9z m2042 -866 c14 -8 137 -124 272 -260
207 -207 247 -252 257 -287 12 -46 6 -105 -16 -146 -7 -14 -94 -106 -192 -203
l-178 -178 -350 350 -350 350 190 189 c156 154 197 190 230 199 45 11 97 6
137 -14z m-1087 -2304 l-1030 -1030 -350 2 -350 3 -3 345 -2 345 1032 1032
1033 1033 350 -350 350 -350 -1030 -1030z"/>
<path d="M2102 2267 l-842 -842 0 -83 0 -82 88 0 87 0 843 843 842 842 -83 83
c-45 45 -85 82 -87 82 -3 0 -384 -379 -848 -843z"/>
</g>
</svg>
